REM DIRINDEX 1\2,1\3,1\4\5,1\4\6
REM DIRNAME "folder01","folder02","folder03","folder04","folder05","folder06"
TITLE ""
FILE "Step1_Track46.mp3" MP3
  TRACK 01 AUDIO
    TITLE "0:"
    INDEX 01 00:00:00
  TRACK 02 AUDIO
    TITLE "3:cjc164_0946"
    INDEX 01 00:00:22
  TRACK 03 AUDIO
    TITLE "0:"
    INDEX 01 00:02:03
  TRACK 04 AUDIO
    TITLE "3:cjc164_0947"
    INDEX 01 00:02:56
  TRACK 05 AUDIO
    TITLE "0:"
    INDEX 01 00:03:58
  TRACK 06 AUDIO
    TITLE "3:cjc164_0948"
    INDEX 01 00:03:75
  TRACK 07 AUDIO
    TITLE "0:"
    INDEX 01 00:04:69
  TRACK 08 AUDIO
    TITLE "2:cjc164_0949"
    INDEX 01 00:05:29
  TRACK 09 AUDIO
    TITLE "0:"
    INDEX 01 00:07:32
  TRACK 10 AUDIO
    TITLE "3:cjc164_0950"
    INDEX 01 00:07:65
  TRACK 11 AUDIO
    TITLE "0:"
    INDEX 01 00:08:65
  TRACK 12 AUDIO
    TITLE "2:cjc164_0951"
    INDEX 01 00:08:69
  TRACK 13 AUDIO
    TITLE "0:"
    INDEX 01 00:12:17
  TRACK 14 AUDIO
    TITLE "3:cjc164_0952"
    INDEX 01 00:12:45
  TRACK 15 AUDIO
    TITLE "0:"
    INDEX 01 00:13:42
  TRACK 16 AUDIO
    TITLE "3:cjc164_0953"
    INDEX 01 00:13:62
  TRACK 17 AUDIO
    TITLE "0:"
    INDEX 01 00:14:61
  TRACK 18 AUDIO
    TITLE "2:cjc164_0954"
    INDEX 01 00:14:75
  TRACK 19 AUDIO
    TITLE "0:"
    INDEX 01 00:17:03
  TRACK 20 AUDIO
    TITLE "3:cjc164_0955"
    INDEX 01 00:17:50
  TRACK 21 AUDIO
    TITLE "0:"
    INDEX 01 00:18:47
  TRACK 22 AUDIO
    TITLE "2:cjc164_0956"
    INDEX 01 00:18:59
  TRACK 23 AUDIO
    TITLE "0:"
    INDEX 01 00:21:50
  TRACK 24 AUDIO
    TITLE "3:cjc164_0957"
    INDEX 01 00:22:14
  TRACK 25 AUDIO
    TITLE "0:"
    INDEX 01 00:23:15
  TRACK 26 AUDIO
    TITLE "3:cjc164_0958"
    INDEX 01 00:23:25
  TRACK 27 AUDIO
    TITLE "0:"
    INDEX 01 00:24:25
  TRACK 28 AUDIO
    TITLE "2:cjc164_0959"
    INDEX 01 00:24:38
  TRACK 29 AUDIO
    TITLE "0:"
    INDEX 01 00:26:51
  TRACK 30 AUDIO
    TITLE "3:cjc164_0960"
    INDEX 01 00:26:68
  TRACK 31 AUDIO
    TITLE "0:"
    INDEX 01 00:27:72
  TRACK 32 AUDIO
    TITLE "2:cjc164_0961"
    INDEX 01 00:28:03
  TRACK 33 AUDIO
    TITLE "0:"
    INDEX 01 00:31:21
  TRACK 34 AUDIO
    TITLE "3:cjc164_0962"
    INDEX 01 00:31:46
  TRACK 35 AUDIO
    TITLE "0:"
    INDEX 01 00:32:44
  TRACK 36 AUDIO
    TITLE "3:cjc164_0963"
    INDEX 01 00:32:61
  TRACK 37 AUDIO
    TITLE "0:"
    INDEX 01 00:33:63
  TRACK 38 AUDIO
    TITLE "2:cjc164_0964"
    INDEX 01 00:33:69
  TRACK 39 AUDIO
    TITLE "0:"
    INDEX 01 00:36:32
  TRACK 40 AUDIO
    TITLE "3:cjc164_0965"
    INDEX 01 00:37:08
  TRACK 41 AUDIO
    TITLE "0:"
    INDEX 01 00:38:07
  TRACK 42 AUDIO
    TITLE "2:cjc164_0966"
    INDEX 01 00:38:21
  TRACK 43 AUDIO
    TITLE "0:"
    INDEX 01 00:40:73
  TRACK 44 AUDIO
    TITLE "3:cjc164_0967"
    INDEX 01 00:41:45
  TRACK 45 AUDIO
    TITLE "0:"
    INDEX 01 00:42:42
  TRACK 46 AUDIO
    TITLE "3:cjc164_0968"
    INDEX 01 00:42:71
  TRACK 47 AUDIO
    TITLE "0:"
    INDEX 01 00:43:75
  TRACK 48 AUDIO
    TITLE "2:cjc164_0969"
    INDEX 01 00:44:37
  TRACK 49 AUDIO
    TITLE "0:"
    INDEX 01 00:46:59
  TRACK 50 AUDIO
    TITLE "3:cjc164_0970"
    INDEX 01 00:47:33
  TRACK 51 AUDIO
    TITLE "0:"
    INDEX 01 00:48:33
  TRACK 52 AUDIO
    TITLE "2:cjc164_0971"
    INDEX 01 00:48:58
  TRACK 53 AUDIO
    TITLE "0:"
    INDEX 01 00:51:16
  TRACK 54 AUDIO
    TITLE "3:cjc164_0972"
    INDEX 01 00:51:68
  TRACK 55 AUDIO
    TITLE "0:"
    INDEX 01 00:52:74
  TRACK 56 AUDIO
    TITLE "3:cjc164_0973"
    INDEX 01 00:53:16
  TRACK 57 AUDIO
    TITLE "0:"
    INDEX 01 00:54:14
  TRACK 58 AUDIO
    TITLE "2:cjc164_0974"
    INDEX 01 00:54:31
  TRACK 59 AUDIO
    TITLE "0:"
    INDEX 01 00:57:20
  TRACK 60 AUDIO
    TITLE "3:cjc164_0975"
    INDEX 01 00:57:51
  TRACK 61 AUDIO
    TITLE "0:"
    INDEX 01 00:58:59
  TRACK 62 AUDIO
    TITLE "2:cjc164_0976"
    INDEX 01 00:58:68
  TRACK 63 AUDIO
    TITLE "0:"
    INDEX 01 01:02:11
